<svg width="16" height="16" viewBox="0 0 16 16" fill="none" xmlns="http://www.w3.org/2000/svg">
<path d="M8 0C10.1732 0 10.4453 0.00981153 11.2998 0.0498047C14.2064 0.181802 15.8214 1.7986 15.9521 4.70117C15.9908 5.55584 16 5.828 16 8C16 10.1733 15.9908 10.4455 15.9521 11.2988C15.8214 14.2067 14.2011 15.8188 11.2998 15.9521C10.4453 15.9908 10.1732 16 8 16C5.82667 16 5.55584 15.9908 4.70117 15.9521C1.79465 15.8188 0.181232 14.204 0.0478516 11.2988C0.0091849 10.4455 0 10.1733 0 8C0 5.828 0.0091849 5.55584 0.0478516 4.70117C0.181232 1.79466 1.79467 0.183195 4.70117 0.0498047C5.34209 0.0198085 5.65475 0.00645466 6.6875 0.00195312L8 0ZM8 1.44238C5.864 1.44238 5.61024 1.44961 4.76758 1.48828C2.59736 1.58706 1.58706 2.61468 1.48828 4.76758C1.45095 5.61024 1.44141 5.864 1.44141 8C1.44141 10.136 1.45095 10.3898 1.48828 11.2324C1.58839 13.38 2.59469 14.4116 4.76758 14.5117C5.61024 14.5504 5.864 14.5586 8 14.5586C10.1373 14.5586 10.3894 14.5491 11.2334 14.5117C13.4039 14.413 14.4136 13.3828 14.5137 11.2324C14.551 10.3898 14.5586 10.136 14.5586 8C14.5586 5.864 14.551 5.61158 14.5137 4.76758C14.4136 2.61587 13.4026 1.58793 11.2334 1.48926C10.3894 1.45059 10.136 1.44238 8 1.44238ZM8 3.8916C10.268 3.8916 12.1084 5.732 12.1084 8C12.1084 10.2693 10.268 12.1084 8 12.1084C5.732 12.1084 3.8916 10.2693 3.8916 8C3.8916 5.73067 5.732 3.8916 8 3.8916ZM8 5.33301C6.52667 5.33301 5.33301 6.528 5.33301 8C5.33301 9.47333 6.52667 10.667 8 10.667C9.472 10.667 10.668 9.47333 10.668 8C10.668 6.52667 9.472 5.33301 8 5.33301ZM12.2695 2.77051C12.8014 2.77061 13.2304 3.19996 13.2305 3.73047C13.2305 4.26107 12.8001 4.69032 12.2695 4.69043C11.7389 4.69043 11.3096 4.2598 11.3096 3.73047C11.3097 3.19989 11.7403 2.77051 12.2695 2.77051Z" fill="white"/>
</svg>
